<?xml version="1.0" encoding="UTF-8"?>
<svg version="1.1" xmlns="http://www.w3.org/2000/svg" width="401" height="272">
<path d="M0 0 C47.19 0 94.38 0 143 0 C143.32242427 44.10495378 143.32242427 44.10495378 143.390625 62.57617188 C143.43810897 75.33416444 143.49395285 88.09173457 143.60351562 100.84936523 C143.68326941 110.14042919 143.73486953 119.43115072 143.75270796 128.72254747 C143.76313521 133.64219995 143.78762744 138.56087286 143.84584045 143.48021126 C143.9002086 148.11223529 143.91687976 152.74287793 143.90486145 157.37519073 C143.90705946 159.07357483 143.92293623 160.77200586 143.9536438 162.47011375 C144.17472876 175.32843019 144.17472876 175.32843019 141.30377007 179.41363525 C139.29065196 181.1523797 137.2316213 182.56025873 135 184 C133.56003672 185.74977818 132.16931353 187.54231161 130.85205078 189.38623047 C122.54375563 199.93154951 115.04962196 206.7816313 101.41405106 208.56197739 C93.429247 209.36236189 85.43219892 209.36346246 77.41699219 209.19775391 C73.72157652 209.12433883 70.05808146 209.16527626 66.36523438 209.32080078 C48.55064814 210.07010695 32.93294318 210.33512817 19.18839455 197.72026634 C13.73922826 192.40092282 8.79789213 186.64700399 4.13284302 180.63424683 C2.27075519 177.9629908 2.27075519 177.9629908 0 177 C0 118.59 0 60.18 0 0 Z " fill="#448FCE" transform="translate(129,0)"/>
<path d="M0 0 C8.91 0 17.82 0 27 0 C27.0093457 3.71443359 27.01869141 7.42886719 27.02832031 11.25585938 C27.06209952 23.53343728 27.11745342 35.81083858 27.18390274 48.08827972 C27.22366188 55.53151293 27.25607015 62.9746409 27.27099609 70.41796875 C27.28402892 76.9078352 27.31103486 83.39746976 27.35461307 89.8872056 C27.37719164 93.32149371 27.39291288 96.75549621 27.39188385 100.18986511 C27.39425079 104.02992465 27.42131177 107.86908067 27.45410156 111.70898438 C27.4490712 112.83971375 27.44404083 113.97044312 27.43885803 115.13543701 C27.54246108 122.98677068 28.87390002 128.16800648 33.9375 134.375 C37.93301932 137.52298492 42.03363562 138.30701892 47 139 C47 137.02 47 135.04 47 133 C63.17 133 79.34 133 96 133 C96 134.98 96 136.96 96 139 C102.49813983 137.42041265 107.37857028 135.95958311 112 131 C115.52712879 124.71349246 115.44135417 118.92137686 115.43237305 111.82250977 C115.4425647 110.61204483 115.45275635 109.4015799 115.46325684 108.1544342 C115.48818678 104.85317154 115.50009651 101.55235306 115.50611091 98.25103498 C115.51552267 94.7943173 115.5417282 91.33772687 115.56611633 87.88108826 C115.60970828 81.34355918 115.63829997 74.8060549 115.66143972 68.26842493 C115.6885307 60.82213971 115.7324397 53.37598297 115.77772844 45.92978966 C115.87047007 30.61991153 115.93997881 15.31004669 116 0 C124.91 0 133.82 0 143 0 C143.1807026 17.35057697 143.32802018 34.70034902 143.41449738 52.05160618 C143.45572043 60.10839628 143.51190405 68.16455955 143.60351562 76.22094727 C143.68334196 83.24429067 143.73488624 90.26718008 143.75270796 97.29096454 C143.76312362 101.00909352 143.78753583 104.72592392 143.84584045 108.44363594 C143.91046017 112.59785261 143.91191382 116.74982324 143.90820312 120.90454102 C143.93696533 122.13237305 143.96572754 123.36020508 143.99536133 124.62524414 C143.91604467 132.82656528 143.91604467 132.82656528 141.30377007 136.1728363 C139.27723731 137.91747201 137.17428964 139.44684043 135 141 C133.56003672 142.74977818 132.16931353 144.54231161 130.85205078 146.38623047 C122.54375563 156.93154951 115.04962196 163.7816313 101.41405106 165.56197739 C93.429247 166.36236189 85.43219892 166.36346246 77.41699219 166.19775391 C73.72157652 166.12433883 70.05808146 166.16527626 66.36523438 166.32080078 C48.55064814 167.07010695 32.93294318 167.33512817 19.18839455 154.72026634 C13.73922826 149.40092282 8.79789213 143.64700399 4.13284302 137.63424683 C2.27075519 134.9629908 2.27075519 134.9629908 0 134 C0 89.78 0 45.56 0 0 Z " fill="#E7AE20" transform="translate(129,43)"/>
<path d="M0 0 C4.62 0 9.24 0 14 0 C14.00586624 1.4605481 14.01173248 2.92109619 14.01777649 4.42590332 C14.07501758 18.19782775 14.14761071 31.9696121 14.23571491 45.74137115 C14.28061703 52.8213807 14.32004442 59.90134057 14.34643555 66.98144531 C14.37192541 73.81558832 14.41286764 80.64950056 14.46318626 87.48350525 C14.47985646 90.08932233 14.49136977 92.69517773 14.49761391 95.30104065 C14.50725289 98.95418458 14.53531163 102.60676155 14.56762695 106.25976562 C14.56619186 107.33439056 14.56475677 108.4090155 14.5632782 109.51620483 C14.67205535 118.2254543 16.22032105 124.22382468 22 131 C22 131.66 22 132.32 22 133 C22.5775 133.28746094 23.155 133.57492188 23.75 133.87109375 C25.15435682 134.57571028 26.55167954 135.29474814 27.9375 136.03515625 C34.20253964 139.15581047 40.05516334 139.76498015 47 140 C47 137.69 47 135.38 47 133 C58.55 133 70.1 133 82 133 C82 135.31 82 137.62 82 140 C92.59412131 139.06481406 100.89231254 137.88067913 108.8125 130.3125 C114.16107405 122.21323072 115.59191362 114.80957533 115.54589844 105.21630859 C115.56140495 103.51699692 115.56140495 103.51699692 115.57722473 101.78335571 C115.6065154 98.07156885 115.60814906 94.36033055 115.609375 90.6484375 C115.62436583 88.06197071 115.64109487 85.47551346 115.65948486 82.8890686 C115.69862385 76.79783318 115.72034723 70.70676814 115.73345876 64.61542857 C115.74938394 57.67448399 115.78782239 50.73371944 115.82805204 43.79287982 C115.91022948 29.52864785 115.96366112 15.26441756 116 1 C120.29 1 124.58 1 129 1 C129.11580745 16.93352882 129.20500465 32.86690842 129.25906086 48.80075264 C129.28482871 56.19934553 129.31995157 63.59767193 129.37719727 70.99609375 C129.42707634 77.44553618 129.45930135 83.89478559 129.47044247 90.34441555 C129.47695382 93.75869386 129.49222617 97.17242003 129.52865028 100.58652115 C129.56490193 104.40062566 129.56994662 108.21358319 129.56762695 112.02783203 C129.59459152 113.72068581 129.59459152 113.72068581 129.62210083 115.44773865 C129.56581671 123.99018393 129.56581671 123.99018393 126.61686707 127.62716675 C124.97655127 129.11451622 123.29585601 130.55970419 121.5625 131.9375 C119.40852083 133.67119055 117.92133944 135.20377635 116.1875 137.3125 C113.32749925 140.75935805 110.14752885 143.6289339 106.734375 146.51953125 C104.91019463 148.03731592 104.91019463 148.03731592 103 150 C100.01123047 150.41546631 100.01123047 150.41546631 96.1171875 150.63964844 C95.40763412 150.6817041 94.69808075 150.72375977 93.96702576 150.76708984 C87.33780328 151.13679073 80.70135539 151.34643592 74.06419373 151.51137924 C69.61845505 151.62352012 65.18763985 151.78356063 60.74951172 152.07128906 C43.84958349 153.13422742 26.12693675 153.62340284 12.29261398 142.3900032 C1.23282041 132.43050315 -1.30581093 120.880328 -2.23513412 106.40705109 C-2.80141928 93.23090358 -2.41350641 80.0702247 -1.87273002 66.8999238 C-1.57783278 59.59291483 -1.43809882 52.28515088 -1.30841374 44.97364116 C-1.03906191 29.97564521 -0.57859569 14.9894938 0 0 Z " fill="#1D1B3C" transform="translate(136,49)"/>
<path d="M0 0 C21.78 0 43.56 0 66 0 C66 18.15 66 36.3 66 55 C44.22 55 22.44 55 0 55 C0 36.85 0 18.7 0 0 Z " fill="#E3AA20" transform="translate(168,57)"/>
<path d="M0 0 C42.9 0 85.8 0 130 0 C130 8.58 130 17.16 130 26 C125.71 26 121.42 26 117 26 C117 21.71 117 17.42 117 13 C106.44 13 95.88 13 85 13 C85 20.59 85 28.18 85 36 C71.8 36 58.6 36 45 36 C45 28.74 45 21.48 45 14 C34.77 14 24.54 14 14 14 C14 18.29 14 22.58 14 27 C9.38 27 4.76 27 0 27 C0 18.09 0 9.18 0 0 Z " fill="#1D1B3C" transform="translate(135,6)"/>
<path d="M0 0 C22.77 0.33 45.54 0.66 69 1 C69 1.33 69 1.66 69 2 C47.22 2 25.44 2 3 2 C3 20.15 3 38.3 3 57 C24.78 57 46.56 57 69 57 C69 64.26 69 71.52 69 79 C67.35 78.34 65.7 77.68 64 77 C60.04 81.95 60.04 81.95 56 87 C54.35 85.68 52.7 84.36 51 83 C51.99 84.485 51.99 84.485 53 86 C51.71937515 87.7074998 50.38232443 89.37373596 49 91 C48.34 91 47.68 91 47 91 C47 90.01 47 89.02 47 88 C45.68 88.99 44.36 89.98 43 91 C42.01 90.505 42.01 90.505 41 90 C42.32 88.02 43.64 86.04 45 84 C44.67 84 44.34 84 44 84 C42.9463606 85.30756357 41.93146366 86.64651756 40.9375 88 C40.38964844 88.7425 39.84179688 89.485 39.27734375 90.25 C38.85582031 90.8275 38.43429688 91.405 38 92 C38.99 92.495 38.99 92.495 40 93 C40 94.32 40 95.64 40 97 C35.71 97.99 31.42 98.98 27 100 C26.67 101.32 26.34 102.64 26 104 C26.66 104 27.32 104 28 104 C28.33 104 28.66 104 29 104 C30.60811656 103.53426132 32.21157485 103.05238778 33.8125 102.5625 C36.86096911 101.63039792 39.90000106 100.74428879 43 100 C42.67 98.35 42.34 96.7 42 95 C43.98 95 45.96 95 48 95 C46.125 98.875 46.125 98.875 45 100 C44.76924918 101.34747084 44.58846937 102.70377565 44.4375 104.0625 C44.293125 105.361875 44.14875 106.66125 44 108 C38.72 108 33.44 108 28 108 C27.67 107.01 27.34 106.02 27 105 C25.28497767 103.55876888 25.28497767 103.55876888 23 103 C20.2806707 103.78702351 20.2806707 103.78702351 18 105 C18 105.99 18 106.98 18 108 C16.02 108.495 16.02 108.495 14 109 C29.18 109 44.36 109 60 109 C59.505 110.485 59.505 110.485 59 112 C52.73811301 112.15280501 46.47671098 112.25748702 40.21337891 112.32958984 C38.08526645 112.35966346 35.95727693 112.40053411 33.82958984 112.45263672 C30.76108396 112.52586732 27.6942238 112.55955099 24.625 112.5859375 C23.68197021 112.61690521 22.73894043 112.64787292 21.76733398 112.67977905 C14.79464412 112.6832888 10.99367354 110.81541921 6 106 C5.18305664 105.23727783 4.36611328 104.47455566 3.52441406 103.6887207 C1.30893398 99.78111625 1.4991749 96.39629417 1.609375 91.98046875 C1.61503479 91.12189774 1.62069458 90.26332672 1.62652588 89.3787384 C1.64884213 86.6477484 1.69902833 83.91809061 1.75 81.1875 C1.7700712 79.33139921 1.78832089 77.47527777 1.8046875 75.61914062 C1.84869119 71.07891704 1.91768479 66.53968407 2 62 C1.34 62 0.68 62 0 62 C0 41.54 0 21.08 0 0 Z " fill="#2B2439" transform="translate(165,55)"/>
<path d="M0 0 C47.19 0 94.38 0 143 0 C143 12.87 143 25.74 143 39 C134.09 39 125.18 39 116 39 C116 34.71 116 30.42 116 26 C109.73 26 103.46 26 97 26 C97 33.26 97 40.52 97 48 C79.84 48 62.68 48 45 48 C45 41.07 45 34.14 45 27 C39.06 27 33.12 27 27 27 C27 30.96 27 34.92 27 39 C18.09 39 9.18 39 0 39 C0 26.13 0 13.26 0 0 Z M6 6 C6 14.91 6 23.82 6 33 C10.62 33 15.24 33 20 33 C20 28.71 20 24.42 20 20 C30.23 20 40.46 20 51 20 C51 27.26 51 34.52 51 42 C64.2 42 77.4 42 91 42 C91 34.41 91 26.82 91 19 C101.56 19 112.12 19 123 19 C123 23.29 123 27.58 123 32 C127.29 32 131.58 32 136 32 C136 23.42 136 14.84 136 6 C93.1 6 50.2 6 6 6 Z " fill="#E7AE1E" transform="translate(129,0)"/>
<path d="M0 0 C24.75 0 49.5 0 75 0 C75.12032643 25.71420332 75.12032643 25.71420332 75.14648438 36.67578125 C75.16441724 44.15517563 75.18563142 51.63445981 75.22631836 59.11376953 C75.25891598 65.14379458 75.276854 71.17370147 75.28463173 77.20380783 C75.29017447 79.50430537 75.30099803 81.80479645 75.31719017 84.10524368 C75.33896935 87.32762882 75.34196666 90.54952575 75.34057617 93.77197266 C75.351362 94.72287781 75.36214783 95.67378296 75.3732605 96.65350342 C75.34217523 103.31167247 74.11390603 107.47505668 69.75 112.6875 C63.39988337 118.02737081 57.53905433 118.467044 49.53515625 118.46875 C48.5430162 118.47636353 47.55087616 118.48397705 46.52867126 118.49182129 C44.43849188 118.50258657 42.34825887 118.50548999 40.25805664 118.50097656 C37.07541539 118.50000395 33.89518461 118.54167408 30.71289062 118.5859375 C28.67448416 118.59114505 26.63606937 118.59383268 24.59765625 118.59375 C23.65471207 118.61014526 22.71176788 118.62654053 21.74024963 118.64343262 C14.50556546 118.56844372 9.59994558 116.57462684 4.44007874 111.4510498 C1.10294385 107.6331259 -0.12627798 104.68444483 -0.12025452 99.69099426 C-0.12162918 98.81179825 -0.12300385 97.93260223 -0.12442017 97.02676392 C-0.12082489 96.06507294 -0.11722961 95.10338196 -0.11352539 94.11254883 C-0.11367142 93.09773941 -0.11381744 92.08292999 -0.1139679 91.03736877 C-0.11327026 87.67723465 -0.10548478 84.31715571 -0.09765625 80.95703125 C-0.09579154 78.62961355 -0.09436789 76.30219546 -0.09336853 73.97477722 C-0.08954751 67.84435953 -0.07972074 61.71396547 -0.06866455 55.58355713 C-0.05664461 48.23056781 -0.05204621 40.8775706 -0.04621124 33.52457428 C-0.0365088 22.34969974 -0.0173493 11.17487707 0 0 Z M2 2 C2 22.46 2 42.92 2 64 C2.66 64 3.32 64 4 64 C3.96334229 65.13953125 3.92668457 66.2790625 3.88891602 67.453125 C3.76154225 71.70940165 3.68161429 75.96551252 3.61547852 80.22314453 C3.58042726 82.06034742 3.53276974 83.89735716 3.47192383 85.73388672 C2.59002257 97.62656591 2.59002257 97.62656591 7.21484375 108.0625 C8.9634326 109.70683176 8.9634326 109.70683176 11 111 C11.6899707 111.54954346 12.37994141 112.09908691 13.09082031 112.6652832 C17.46353206 114.67146104 21.57960671 114.36973955 26.33203125 114.29296875 C27.32377853 114.28872391 28.31552582 114.28447906 29.33732605 114.28010559 C32.49599685 114.26335123 35.65402297 114.22570448 38.8125 114.1875 C40.95767306 114.17244899 43.10285615 114.15876132 45.24804688 114.14648438 C50.49891681 114.11345841 55.74941234 114.06329122 61 114 C61.495 112.515 61.495 112.515 62 111 C46.82 111 31.64 111 16 111 C17.98 110.01 17.98 110.01 20 109 C20.495 107.515 20.495 107.515 21 106 C23.46865019 104.89336371 24.61869301 104.86926618 27.1875 105.75 C29 107 29 107 30 110 C35.28 110 40.56 110 46 110 C46.103125 108.741875 46.20625 107.48375 46.3125 106.1875 C46.7835548 102.25973424 46.7835548 102.25973424 48.5625 100.125 C49.2740625 99.568125 49.2740625 99.568125 50 99 C50 98.34 50 97.68 50 97 C48.02 97 46.04 97 44 97 C44.33 98.65 44.66 100.3 45 102 C44.15695313 102.19335938 43.31390625 102.38671875 42.4453125 102.5859375 C40.80175781 102.97652344 40.80175781 102.97652344 39.125 103.375 C38.03445312 103.63023437 36.94390625 103.88546875 35.8203125 104.1484375 C32.89591545 104.78906215 32.89591545 104.78906215 31 107 C29.515 106.505 29.515 106.505 28 106 C28.33 104.68 28.66 103.36 29 102 C33.29 101.01 37.58 100.02 42 99 C42 97.68 42 96.36 42 95 C41.01 94.505 41.01 94.505 40 94 C43.875 89.125 43.875 89.125 45 88 C44.34 89.65 43.68 91.3 43 93 C43.61875 92.690625 44.2375 92.38125 44.875 92.0625 C46.25 91.375 47.625 90.6875 49 90 C49 90.99 49 91.98 49 93 C52.73639216 91.75453595 53.18756513 90.36595047 55 87 C54.34 86.01 53.68 85.02 53 84 C54.65 85.65 56.3 87.3 58 89 C61.96 84.05 61.96 84.05 66 79 C67.65 79.66 69.3 80.32 71 81 C71 55.26 71 29.52 71 3 C48.23 2.67 25.46 2.34 2 2 Z " fill="#1C1E43" transform="translate(163,53)"/>
<path d="M0 0 C21.78 0 43.56 0 66 0 C66 18.15 66 36.3 66 55 C44.22 55 22.44 55 0 55 C0 36.85 0 18.7 0 0 Z M1 2 C1 19.16 1 36.32 1 54 C13.29258084 54.02728636 13.29258084 54.02728636 25.5625 53.78125 C26.25013428 53.75905396 26.93776855 53.73685791 27.64624023 53.71398926 C29.76424884 53.64508435 31.88211674 53.57264379 34 53.5 C35.46874213 53.4515835 36.93749214 53.40340556 38.40625 53.35546875 C41.93759455 53.23971031 45.46882353 53.12078988 49 53 C48.67 51.35 48.34 49.7 48 48 C40.47020441 47.1429501 32.94741122 46.84224722 25.375 46.75 C24.48586914 46.72873047 23.59673828 46.70746094 22.68066406 46.68554688 C21.8450293 46.68103516 21.00939453 46.67652344 20.1484375 46.671875 C19.02187744 46.65785645 19.02187744 46.65785645 17.87255859 46.64355469 C17.25461426 46.76118164 16.63666992 46.87880859 16 47 C15.34 47.99 14.68 48.98 14 50 C13.67 50 13.34 50 13 50 C13.66 48.68 14.32 47.36 15 46 C16.12792969 46.01160156 17.25585938 46.02320313 18.41796875 46.03515625 C30.64269261 46.11914791 42.79532902 45.68006127 55 45 C54.37354026 40.1392762 52.95827175 35.79276918 51.1875 31.25 C50.91615234 30.55060303 50.64480469 29.85120605 50.36523438 29.13061523 C49.82334415 27.73421819 49.28024134 26.33829101 48.73583984 24.94287109 C48.08875824 23.23435238 47.50225604 21.50314817 46.92578125 19.76953125 C46.09791839 17.34881833 45.35277275 15.17129828 44 13 C40.88904363 11.69889182 40.88904363 11.69889182 38 12 C38.33 11.401875 38.66 10.80375 39 10.1875 C40.20787988 7.94613529 40.20787988 7.94613529 40 5 C39.34 5 38.68 5 38 5 C37.505 3.515 37.505 3.515 37 2 C25.12 2 13.24 2 1 2 Z " fill="#EDB11C" transform="translate(168,57)"/>
<path d="M0 0 C21.78 0 43.56 0 66 0 C66 5.61 66 11.22 66 17 C64.35 16.34 62.7 15.68 61 15 C58.36 18.3 55.72 21.6 53 25 C50.525 23.02 50.525 23.02 48 21 C48.66 21.99 49.32 22.98 50 24 C48.71937515 25.7074998 47.38232443 27.37373596 46 29 C45.34 29 44.68 29 44 29 C44 28.01 44 27.02 44 26 C42.68 26.99 41.36 27.98 40 29 C39.34 28.67 38.68 28.34 38 28 C39.32 26.02 40.64 24.04 42 22 C41.67 22 41.34 22 41 22 C39.50609507 24.01792082 38.08830195 26.08208944 36.66796875 28.15234375 C34.79664881 30.22525787 33.72211722 30.627997 31 31 C31.66 30.01 32.32 29.02 33 28 C33.58345476 25.04253508 33.58345476 25.04253508 33 22 C32.175 21.34 31.35 20.68 30.5 20 C29.2625 19.01 29.2625 19.01 28 18 C27.6875 14.75 27.6875 14.75 28 12 C26.68 11.67 25.36 11.34 24 11 C23.83322718 14.41656024 23.83322718 14.41656024 24 18 C24.66 18.66 25.32 19.32 26 20 C25.34 20.33 24.68 20.66 24 21 C24 23.97 24 26.94 24 30 C25.32 30.66 26.64 31.32 28 32 C26.02 32 24.04 32 22 32 C21.84144531 31.01 21.68289062 30.02 21.51953125 29 C19.84147288 18.0888953 19.84147288 18.0888953 14 9 C11.34148231 7.87786106 11.34148231 7.87786106 9 8 C9 7.34 9 6.68 9 6 C10.32 6 11.64 6 13 6 C13 5.01 13 4.02 13 3 C11.35 2.67 9.7 2.34 8 2 C8 3.98 8 5.96 8 8 C5.36 8.33 2.72 8.66 0 9 C0 6.03 0 3.06 0 0 Z " fill="#FAFAFB" transform="translate(168,117)"/>
<path d="M0 0 C1.65 0 3.3 0 5 0 C4.67 1.32 4.34 2.64 4 4 C8.19158781 5.29810403 12.10843427 4.89733694 16.44140625 4.64453125 C19 5 19 5 20.83984375 7.01171875 C21.22269531 7.66785156 21.60554688 8.32398438 22 9 C22.86625 8.34 23.7325 7.68 24.625 7 C28.21423463 4.87304615 29.92694798 4.61209028 34 5 C34.33 3.35 34.66 1.7 35 0 C36.65 0 38.3 0 40 0 C39.67 2.64 39.34 5.28 39 8 C39.680625 7.505 40.36125 7.01 41.0625 6.5 C44.6413106 4.67252225 47.02991497 4.62546368 51 5 C53 7 53 7 53.375 10.3125 C52.94157154 14.57454655 51.9872762 16.0127238 49 19 C45.2794164 21.48038907 43.40203429 21.46337203 39 21 C36.5625 19 36.5625 19 35 17 C34.34 18.32 33.68 19.64 33 21 C23.82713348 21.63019694 23.82713348 21.63019694 20.375 19 C19.694375 18.01 19.694375 18.01 19 17 C18.34 18.32 17.68 19.64 17 21 C15.04196493 21.05389087 13.08351091 21.09274217 11.125 21.125 C10.03445313 21.14820313 8.94390625 21.17140625 7.8203125 21.1953125 C5 21 5 21 3 19 C2.67 19.66 2.34 20.32 2 21 C0.02 21 -1.96 21 -4 21 C-5.76062164 17.67438135 -6.10784228 16.40826005 -5.125 12.6875 C-4.75375 11.800625 -4.3825 10.91375 -4 10 C-6.52053595 8.73973202 -7.8542098 9.08125555 -10.625 9.4375 C-11.44226563 9.53933594 -12.25953125 9.64117187 -13.1015625 9.74609375 C-13.72804688 9.82988281 -14.35453125 9.91367188 -15 10 C-12.69 10.33 -10.38 10.66 -8 11 C-7.25 13.1875 -7.25 13.1875 -7 16 C-8.5625 18.65625 -8.5625 18.65625 -11 21 C-14.234375 21.48828125 -14.234375 21.48828125 -17.75 21.3125 C-19.50570313 21.24482422 -19.50570313 21.24482422 -21.296875 21.17578125 C-22.18890625 21.11777344 -23.0809375 21.05976563 -24 21 C-23.1328125 18.55078125 -23.1328125 18.55078125 -22 16 C-19.875 15.1875 -19.875 15.1875 -18 15 C-18.99 14.67 -19.98 14.34 -21 14 C-20.51622419 8.55752212 -20.51622419 8.55752212 -18.4375 6.3125 C-15.06959772 4.49901416 -11.96810559 4.67544318 -8.25 4.8125 C-7.55261719 4.82603516 -6.85523438 4.83957031 -6.13671875 4.85351562 C-4.42414459 4.8887055 -2.71197059 4.94250845 -1 5 C-0.67 3.35 -0.34 1.7 0 0 Z M6 7 C6 7.66 6 8.32 6 9 C4.35 9.33 2.7 9.66 1 10 C0.67 11.98 0.34 13.96 0 16 C1.32 15.67 2.64 15.34 4 15 C4 14.34 4 13.68 4 13 C7.96 12.34 11.92 11.68 16 11 C16 10.34 16 9.68 16 9 C13.03 9 10.06 9 7 9 C6.67 8.34 6.34 7.68 6 7 Z M26 11 C25.27034634 13.56282742 25.27034634 13.56282742 25 16 C26.65 16 28.3 16 30 16 C31.4606285 13.35261084 32 12.10551666 32 9 C28.81509993 8.7226499 28.81509993 8.7226499 26 11 Z M37 9 C38 11 38 11 38 11 Z M44 9 C41.58152803 11.50484597 41 12.46013806 41 16 C43.41619823 16.25030977 43.41619823 16.25030977 46 16 C48.36980013 13.04622502 48.36980013 13.04622502 48 9 C46.68 9 45.36 9 44 9 Z M20 11 C21 13 21 13 21 13 Z M36 11 C37 13 37 13 37 13 Z M8 15 C8 15.33 8 15.66 8 16 C9.98 16 11.96 16 14 16 C14 15.67 14 15.34 14 15 C12.02 15 10.04 15 8 15 Z " fill="#EDAE31" transform="translate(296,246)"/>
<path d="M0 0 C7.26 0 14.52 0 22 0 C23.093125 2.578125 24.18625 5.15625 25.3125 7.8125 C25.65063721 8.59987549 25.98877441 9.38725098 26.3371582 10.19848633 C28.81778029 16.13970261 30.26620065 21.64273571 32 28 C18.14 28 4.28 28 -10 28 C-9.11849145 23.59245726 -7.82987241 19.79998491 -6.125 15.6875 C-3.99319919 10.48654878 -1.97500919 5.26669117 0 0 Z " fill="#CC9B21" transform="translate(190,70)"/>
<path d="M0 0 C0.33 0 0.66 0 1 0 C1.15592685 7.4774615 1.30403855 14.95504622 1.4429636 22.43284225 C1.50774503 25.90746111 1.57492686 29.3819942 1.64819336 32.85644531 C2.23641728 60.89169205 2.23641728 60.89169205 1.29017639 74.30389404 C0.8846253 78.27293158 0.8846253 78.27293158 2 82 C2.07033769 83.87379605 2.0843022 85.75001102 2.0625 87.625 C2.05347656 88.62789063 2.04445313 89.63078125 2.03515625 90.6640625 C2.02355469 91.43492187 2.01195312 92.20578125 2 93 C1.34 93 0.68 93 0 93 C0 94.65 0 96.3 0 98 C-7.26 98 -14.52 98 -22 98 C-21.67 96.35 -21.34 94.7 -21 93 C-22.98 93 -24.96 93 -27 93 C-26.67 94.65 -26.34 96.3 -26 98 C-30.29456388 100.30440013 -34.31479085 101.78184562 -39 103 C-35.04 103.33 -31.08 103.66 -27 104 C-27 104.33 -27 104.66 -27 105 C-31.29 105 -35.58 105 -40 105 C-40.33 104.01 -40.66 103.02 -41 102 C-41.66 102 -42.32 102 -43 102 C-42.67 100.35 -42.34 98.7 -42 97 C-35.565 96.01 -35.565 96.01 -29 95 C-29 93.68 -29 92.36 -29 91 C-29.99 90.67 -30.98 90.34 -32 90 C-29.05197367 86.28767055 -26.04284775 82.63451258 -23 79 C-23 82.99904969 -24.72586967 84.80200422 -27 88 C-24.525 87.01 -24.525 87.01 -22 86 C-22 86.99 -22 87.98 -22 89 C-20.35 87.35 -18.7 85.7 -17 84 C-17.99 82.35 -18.98 80.7 -20 79 C-16.90837736 80.38589981 -15.50816459 81.49183541 -13 84 C-9.04 79.05 -9.04 79.05 -5 74 C-3.68 74.66 -2.36 75.32 -1 76 C-0.67 70.06 -0.34 64.12 0 58 C-21.78 58 -43.56 58 -66 58 C-66 57.67 -66 57.34 -66 57 C-44.22 57 -22.44 57 0 57 C0 38.19 0 19.38 0 0 Z " fill="#221F3D" transform="translate(234,57)"/>
<path d="M0 0 C3.69230769 0.69230769 3.69230769 0.69230769 5 2 C4.9175 2.928125 4.835 3.85625 4.75 4.8125 C4.87375 6.3903125 4.87375 6.3903125 5 8 C6.2375 8.99 6.2375 8.99 7.5 10 C10 12 10 12 10.4375 15.125 C10 18 10 18 8 20 C9.65 20.33 11.3 20.66 13 21 C13 22.32 13 23.64 13 25 C6.565 26.485 6.565 26.485 0 28 C-0.33 29.32 -0.66 30.64 -1 32 C-0.34 32 0.32 32 1 32 C1.33 32 1.66 32 2 32 C3.60811656 31.53426132 5.21157485 31.05238778 6.8125 30.5625 C9.86096911 29.63039792 12.90000106 28.74428879 16 28 C15.67 26.35 15.34 24.7 15 23 C16.98 23 18.96 23 21 23 C19.125 26.875 19.125 26.875 18 28 C17.76924918 29.34747084 17.58846937 30.70377565 17.4375 32.0625 C17.293125 33.361875 17.14875 34.66125 17 36 C11.72 36 6.44 36 1 36 C0.67 35.01 0.34 34.02 0 33 C-1.71502233 31.55876888 -1.71502233 31.55876888 -4 31 C-6.7193293 31.78702351 -6.7193293 31.78702351 -9 33 C-9 33.99 -9 34.98 -9 36 C-10.98 36.495 -10.98 36.495 -13 37 C2.18 37 17.36 37 33 37 C32.67 37.99 32.34 38.98 32 40 C25.73811301 40.15280501 19.47671098 40.25748702 13.21337891 40.32958984 C11.08526645 40.35966346 8.95727693 40.40053411 6.82958984 40.45263672 C3.76108396 40.52586732 0.6942238 40.55955099 -2.375 40.5859375 C-3.31802979 40.61690521 -4.26105957 40.64787292 -5.23266602 40.67977905 C-12.18655909 40.68327933 -15.98696291 38.75910455 -21 34 C-21.85150635 33.37658218 -21.85150635 33.37658218 -22.72021484 32.74057007 C-24 31 -24 31 -24 24 C-17.4 24 -10.8 24 -4 24 C-3.67 25.32 -3.34 26.64 -3 28 C-3 24.04 -3 20.08 -3 16 C-2.67 16 -2.34 16 -2 16 C-2 17.98 -2 19.96 -2 22 C-0.68 21.67 0.64 21.34 2 21 C1.2575 20.4740625 1.2575 20.4740625 0.5 19.9375 C-1.74153389 17.04218539 -1.19088797 14.56324209 -1 11 C-1 8.7915684 -1.02442925 6.58310343 -1.0625 4.375 C-1 1 -1 1 0 0 Z " fill="#3974B1" transform="translate(192,127)"/>
<path d="M0 0 C0.87591797 -0.01224609 1.75183594 -0.02449219 2.65429688 -0.03710938 C3.49154297 -0.03904297 4.32878906 -0.04097656 5.19140625 -0.04296875 C5.95783447 -0.04707764 6.7242627 -0.05118652 7.51391602 -0.05541992 C9.4375 0.1875 9.4375 0.1875 11.4375 2.1875 C12.4275 1.5275 13.4175 0.8675 14.4375 0.1875 C17.13671875 -0.0078125 17.13671875 -0.0078125 20.125 0.0625 C21.61580078 0.08957031 21.61580078 0.08957031 23.13671875 0.1171875 C23.89597656 0.14039063 24.65523437 0.16359375 25.4375 0.1875 C25.1075 1.5075 24.7775 2.8275 24.4375 4.1875 C21.4675 4.1875 18.4975 4.1875 15.4375 4.1875 C15.4375 4.8475 15.4375 5.5075 15.4375 6.1875 C17.7475 6.1875 20.0575 6.1875 22.4375 6.1875 C23.1875 8.375 23.1875 8.375 23.4375 11.1875 C21.875 13.84375 21.875 13.84375 19.4375 16.1875 C16.203125 16.67578125 16.203125 16.67578125 12.6875 16.5 C10.93179688 16.43232422 10.93179688 16.43232422 9.140625 16.36328125 C8.24859375 16.30527344 7.3565625 16.24726563 6.4375 16.1875 C7.3046875 13.73828125 7.3046875 13.73828125 8.4375 11.1875 C10.5625 10.375 10.5625 10.375 12.4375 10.1875 C11.4475 9.8575 10.4575 9.5275 9.4375 9.1875 C9.4375 8.5275 9.4375 7.8675 9.4375 7.1875 C8.633125 7.208125 7.82875 7.22875 7 7.25 C4.4375 7.1875 4.4375 7.1875 3.4375 6.1875 C2.1175 9.4875 0.7975 12.7875 -0.5625 16.1875 C-2.83274968 16.26847324 -5.10382075 16.32667704 -7.375 16.375 C-9.27185547 16.42720703 -9.27185547 16.42720703 -11.20703125 16.48046875 C-14.5625 16.1875 -14.5625 16.1875 -16.515625 14.88671875 C-17.5625 13.1875 -17.5625 13.1875 -17.5 9.8125 C-16.49442317 5.9242696 -15.38223008 4.00723008 -12.5625 1.1875 C-8.36706908 -0.21097697 -4.39368623 0.00324737 0 0 Z M-1.5625 2.1875 C-0.5625 4.1875 -0.5625 4.1875 -0.5625 4.1875 Z M-9.5625 4.1875 C-9.8925 4.8475 -10.2225 5.5075 -10.5625 6.1875 C-8.891875 6.1565625 -8.891875 6.1565625 -7.1875 6.125 C-3.5625 6.1875 -3.5625 6.1875 -1.5625 7.1875 C-1.5625 6.1975 -1.5625 5.2075 -1.5625 4.1875 C-4.2025 4.1875 -6.8425 4.1875 -9.5625 4.1875 Z M9.4375 4.1875 C10.4375 6.1875 10.4375 6.1875 10.4375 6.1875 Z M-4.5625 9.1875 C-7.2025 9.5175 -9.8425 9.8475 -12.5625 10.1875 C-12.5625 10.5175 -12.5625 10.8475 -12.5625 11.1875 C-9.5925 11.5175 -6.6225 11.8475 -3.5625 12.1875 C-3.8925 11.1975 -4.2225 10.2075 -4.5625 9.1875 Z " fill="#EDAE31" transform="translate(126.5625,250.8125)"/>
<path d="M0 0 C0.33 0 0.66 0 1 0 C1 20.79 1 41.58 1 63 C1.66 63 2.32 63 3 63 C3 66.3 3 69.6 3 73 C3.99 73.33 4.98 73.66 6 74 C5.01 74 4.02 74 3 74 C2.99371495 78.522093 3.05347883 83.0410209 3.125 87.5625 C3.12242187 88.83931641 3.11984375 90.11613281 3.1171875 91.43164062 C3.30280801 100.47092696 3.30280801 100.47092696 8.22998047 107.68334961 C9.10614014 108.33509155 9.10614014 108.33509155 10 109 C10.68126953 109.54188965 11.36253906 110.0837793 12.06445312 110.64208984 C16.40563624 112.65021197 20.49567372 112.47986759 25.2265625 112.51171875 C26.21119476 112.52966995 27.19582703 112.54762115 28.21029663 112.56611633 C31.34848765 112.62016408 34.4865283 112.65407619 37.625 112.6875 C39.74481278 112.72068277 41.86460552 112.75517332 43.984375 112.79101562 C56.27884396 113.57092819 56.27884396 113.57092819 68 111 C64.65611193 114.71543118 61.91395189 116.72480642 56.83139038 117.20480347 C54.12938692 117.31483771 51.43468593 117.35591313 48.73046875 117.37109375 C47.23801384 117.38463646 47.23801384 117.38463646 45.71540833 117.39845276 C43.61328125 117.41293727 41.51110927 117.42183752 39.40893555 117.42553711 C36.20869139 117.43742131 33.01038377 117.48661545 29.81054688 117.53710938 C27.76303019 117.54657587 25.71550173 117.55380982 23.66796875 117.55859375 C22.71875046 117.57812607 21.76953217 117.59765839 20.79154968 117.61778259 C12.60521927 117.56275756 8.17949238 114.9839275 2.30761719 109.47322083 C-1.08108612 105.25765719 -0.66397318 100.78508366 -0.56762695 95.58837891 C-0.56835709 94.55362427 -0.56908722 93.51886963 -0.56983948 92.45275879 C-0.56636498 89.04348753 -0.52750815 85.63559415 -0.48828125 82.2265625 C-0.47895269 79.85859931 -0.47183678 77.49062645 -0.46684265 75.12265015 C-0.44777654 68.89830762 -0.39867789 62.67455094 -0.34332275 56.45043945 C-0.29212263 50.0959465 -0.2693269 43.74135864 -0.24414062 37.38671875 C-0.19055975 24.92422215 -0.1052507 12.46215984 0 0 Z " fill="#11123D" transform="translate(164,54)"/>
<path d="M0 0 C2 1.6875 2 1.6875 3 4 C3.1875 6.75 3.1875 6.75 3 9 C3.99 9.33 4.98 9.66 6 10 C5.979375 10.969375 5.95875 11.93875 5.9375 12.9375 C5.64381501 15.87465895 5.64381501 15.87465895 7 17 C7 18.98 7 20.96 7 23 C0.4 23 -6.2 23 -13 23 C-13 16.07 -13 9.14 -13 2 C-7.6857642 -0.12569432 -5.52267608 -0.53445252 0 0 Z " fill="#EFB31C" transform="translate(181,126)"/>
<path d="M0 0 C21.78 0 43.56 0 66 0 C66.04125 6.88875 66.0825 13.7775 66.125 20.875 C66.14320801 23.0494873 66.16141602 25.22397461 66.18017578 27.46435547 C66.1860153 29.18196363 66.19111214 30.89957455 66.1953125 32.6171875 C66.20554443 33.51381104 66.21577637 34.41043457 66.22631836 35.33422852 C66.22668091 36.61293823 66.22668091 36.61293823 66.22705078 37.91748047 C66.231492 38.65916473 66.23593323 39.400849 66.24050903 40.16500854 C66 42 66 42 64 44 C64 30.14 64 16.28 64 2 C55.646875 2.2784375 55.646875 2.2784375 47.125 2.5625 C31.67214671 3.02792677 16.45066932 2.81319312 1 2 C1 19.16 1 36.32 1 54 C2.98 54 4.96 54 7 54 C7.33 53.01 7.66 52.02 8 51 C8 51.99 8 52.98 8 54 C9.86869751 53.75552124 9.86869751 53.75552124 11.77514648 53.50610352 C17.3899524 52.88521745 22.95412152 52.87393637 28.59765625 52.90234375 C29.67252792 52.9037587 30.7473996 52.90517365 31.85484314 52.90663147 C35.25742483 52.91218849 38.65993851 52.92473287 42.0625 52.9375 C44.3821605 52.94252056 46.70182204 52.94708249 49.02148438 52.95117188 C54.68101243 52.96214381 60.34050135 52.9788386 66 53 C66 53.66 66 54.32 66 55 C44.22 55 22.44 55 0 55 C0 36.85 0 18.7 0 0 Z " fill="#F7B918" transform="translate(168,57)"/>
<path d="M0 0 C12.68965517 0 12.68965517 0 16 3 C19.16955197 6.93461624 19.53348798 10.02077887 19 15 C17.71378621 17.97860036 16.393203 19.64365978 14 21.8125 C11 23 11 23 0 23 C0 15.41 0 7.82 0 0 Z M6 5 C6 9.29 6 13.58 6 18 C7.98 17.67 9.96 17.34 12 17 C13.49297212 14.01405576 13.11755228 11.29146376 13 8 C12.67 7.34 12.34 6.68 12 6 C9.03 5.505 9.03 5.505 6 5 Z " fill="#1D1D1B" transform="translate(170,212)"/>
<path d="M0 0 C12.8 0 12.8 0 16 3 C18.89330787 7.14707461 19.42742849 10.25214097 18.58203125 15.1015625 C17.68135262 18.03934648 16.18223418 19.88194918 14 22 C11 23 11 23 0 23 C0 15.41 0 7.82 0 0 Z M6 5 C6 9.29 6 13.58 6 18 C7.98 17.67 9.96 17.34 12 17 C13.54163175 13.9167365 13.29747535 11.39121901 13 8 C11.30835778 5.95970404 11.30835778 5.95970404 9 5 C8.01 5 7.02 5 6 5 Z " fill="#1D1D1B" transform="translate(127,212)"/>
<path d="M0 0 C1.65 0 3.3 0 5 0 C7.01953125 2.1875 7.01953125 2.1875 8.8125 5 C9.41707031 5.928125 10.02164062 6.85625 10.64453125 7.8125 C11.09183594 8.534375 11.53914063 9.25625 12 10 C12.33 6.7 12.66 3.4 13 0 C14.65 0 16.3 0 18 0 C18 7.59 18 15.18 18 23 C16.35 23 14.7 23 13 23 C10.98046875 20.59375 10.98046875 20.59375 9.1875 17.5 C8.58292969 16.4790625 7.97835938 15.458125 7.35546875 14.40625 C6.90816406 13.6121875 6.46085937 12.818125 6 12 C5.67 15.63 5.34 19.26 5 23 C3.35 23 1.7 23 0 23 C0 15.41 0 7.82 0 0 Z " fill="#1D1D1B" transform="translate(19,212)"/>
<path d="M0 0 C1.65 0 3.3 0 5 0 C2.96192707 7.1178153 0.59655258 14.06707281 -2 21 C-3.60379341 21.05416188 -5.20811406 21.09286638 -6.8125 21.125 C-7.70582031 21.14820313 -8.59914062 21.17140625 -9.51953125 21.1953125 C-12 21 -12 21 -15 19 C-15.33 18.01 -15.66 17.02 -16 16 C-16.99 18.475 -16.99 18.475 -18 21 C-19.65 21 -21.3 21 -23 21 C-22.54548816 19.26982492 -22.08621143 17.54090123 -21.625 15.8125 C-21.36976563 14.84957031 -21.11453125 13.88664062 -20.8515625 12.89453125 C-20.05233704 10.17789793 -19.0968638 7.60862825 -18 5 C-16.35 5 -14.7 5 -13 5 C-13 6.32 -13 7.64 -13 9 C-12.60167969 8.51917969 -12.20335937 8.03835937 -11.79296875 7.54296875 C-9.56549753 5.62608175 -8.21165331 5.52258357 -5.3125 5.3125 C-4.50425781 5.24675781 -3.69601563 5.18101562 -2.86328125 5.11328125 C-2.24839844 5.07589844 -1.63351563 5.03851563 -1 5 C-0.67 3.35 -0.34 1.7 0 0 Z M-7 9 C-9.41847197 11.50484597 -10 12.46013806 -10 16 C-8.35 16 -6.7 16 -5 16 C-4.34 13.69 -3.68 11.38 -3 9 C-4.32 9 -5.64 9 -7 9 Z M-15 11 C-14 13 -14 13 -14 13 Z " fill="#EDAE31" transform="translate(172,246)"/>
<path d="M0 0 C11.65384615 0 11.65384615 0 16.8125 4.625 C18.67614385 8.3522877 18.53222418 11.91718441 18 16 C16.72362945 19.15733767 15.79240348 20.49574324 12.9375 22.3125 C10 23 10 23 0 23 C0 15.41 0 7.82 0 0 Z M5 5 C5 9.29 5 13.58 5 18 C6.98 17.67 8.96 17.34 11 17 C13.35062805 14.10622176 13.35062805 14.10622176 12.875 10.4375 C12.37203355 6.97809282 12.37203355 6.97809282 10.125 5.5625 C7.88301208 4.87205372 7.88301208 4.87205372 5 5 Z " fill="#1D1D1B" transform="translate(200,212)"/>
<path d="M0 0 C2.578125 -0.15625 2.578125 -0.15625 5 0 C2.96192707 7.1178153 0.59655258 14.06707281 -2 21 C-4.43868168 21.1079859 -6.87259133 21.18726589 -9.3125 21.25 C-10.00279297 21.28351563 -10.69308594 21.31703125 -11.40429688 21.3515625 C-14.65681467 21.41441309 -16.51218129 21.41320017 -19.04296875 19.26953125 C-20.55458601 15.68483888 -19.43508797 13.54898523 -18.0703125 10.0625 C-16.48875921 7.01483527 -15.27359984 6.06747821 -12 5 C-10.45779188 5.00814547 -8.91552342 5.05247536 -7.375 5.125 C-5.06376677 5.28527667 -5.06376677 5.28527667 -3 5 C-1.21030974 2.57327433 -1.21030974 2.57327433 0 0 Z M-4 7 C-3 9 -3 9 -3 9 Z M-12 9 C-12.33 9.66 -12.66 10.32 -13 11 C-10.36 11 -7.72 11 -5 11 C-4.67 11.66 -4.34 12.32 -4 13 C-4 11.68 -4 10.36 -4 9 C-6.64 9 -9.28 9 -12 9 Z M-6 13 C-5 15 -5 15 -5 15 Z M-15 15 C-15 15.33 -15 15.66 -15 16 C-12.36 16 -9.72 16 -7 16 C-6.67 16.66 -6.34 17.32 -6 18 C-6 17.01 -6 16.02 -6 15 C-8.97 15 -11.94 15 -15 15 Z " fill="#EDAE31" transform="translate(248,246)"/>
<path d="M0 0 C10 0 10 0 12.625 1.625 C14.40841979 4.70545237 14.51186027 6.49010104 14 10 C12.5 12.375 12.5 12.375 11 14 C11.66 15.11375 12.32 16.2275 13 17.375 C15 20.75 15 20.75 15 23 C12.6875 23.3125 12.6875 23.3125 10 23 C8.1875 20.5 8.1875 20.5 7 18 C6.67 19.65 6.34 21.3 6 23 C4.02 23 2.04 23 0 23 C0 15.41 0 7.82 0 0 Z M6 5 C6 5.99 6 6.98 6 8 C6.99 8 7.98 8 9 8 C8.67 7.01 8.34 6.02 8 5 C7.34 5 6.68 5 6 5 Z " fill="#1D1D1B" transform="translate(86,212)"/>
<path d="M0 0 C6.6 0 13.2 0 20 0 C19.67 1.32 19.34 2.64 19 4 C13.06 4.495 13.06 4.495 7 5 C6.67 6.98 6.34 8.96 6 11 C7.65 11 9.3 11 11 11 C11 11.66 11 12.32 11 13 C26.18 13 41.36 13 57 13 C56.67 13.99 56.34 14.98 56 16 C49.73811301 16.15280501 43.47671098 16.25748702 37.21337891 16.32958984 C35.08526645 16.35966346 32.95727693 16.40053411 30.82958984 16.45263672 C27.76108396 16.52586732 24.6942238 16.55955099 21.625 16.5859375 C20.68197021 16.61690521 19.73894043 16.64787292 18.76733398 16.67977905 C11.81344091 16.68327933 8.01303709 14.75910455 3 10 C2.4323291 9.58438812 1.8646582 9.16877625 1.27978516 8.74057007 C0 7 0 7 0 0 Z " fill="#D4A41D" transform="translate(168,151)"/>
<path d="M0 0 C3.3 0 6.6 0 10 0 C13.33169751 3.33169751 13.81657498 4.41437441 14 9 C12.5625 11.875 12.5625 11.875 11 14 C11.66 15.11375 12.32 16.2275 13 17.375 C15 20.75 15 20.75 15 23 C12.75 23.375 12.75 23.375 10 23 C7.6875 20 7.6875 20 6 17 C5.67 18.98 5.34 20.96 5 23 C3.35 23 1.7 23 0 23 C0 15.41 0 7.82 0 0 Z M5 5 C5 5.99 5 6.98 5 8 C6.32 8 7.64 8 9 8 C8.67 7.01 8.34 6.02 8 5 C7.01 5 6.02 5 5 5 Z " fill="#1D1D1B" transform="translate(280,212)"/>
<path d="M0 0 C1.2065625 0.0309375 1.2065625 0.0309375 2.4375 0.0625 C3.7792678 3.32993656 5.10944359 6.60196908 6.4375 9.875 C6.8190625 10.80376953 7.200625 11.73253906 7.59375 12.68945312 C7.9546875 13.58212891 8.315625 14.47480469 8.6875 15.39453125 C9.02265625 16.21671143 9.3578125 17.0388916 9.703125 17.88598633 C10.4375 20.0625 10.4375 20.0625 10.4375 23.0625 C8.7875 23.0625 7.1375 23.0625 5.4375 23.0625 C5.2725 22.423125 5.1075 21.78375 4.9375 21.125 C3.655714 18.90130759 3.655714 18.90130759 1.5234375 18.57421875 C-0.49825155 18.3349022 -2.53091939 18.19356972 -4.5625 18.0625 C-4.8925 19.7125 -5.2225 21.3625 -5.5625 23.0625 C-7.5425 23.0625 -9.5225 23.0625 -11.5625 23.0625 C-4.16833333 0.10166667 -4.16833333 0.10166667 0 0 Z M-0.5625 8.0625 C-1.2225 9.7125 -1.8825 11.3625 -2.5625 13.0625 C-1.2425 13.0625 0.0775 13.0625 1.4375 13.0625 C1.1075 11.4125 0.7775 9.7625 0.4375 8.0625 C0.1075 8.0625 -0.2225 8.0625 -0.5625 8.0625 Z " fill="#1D1D1B" transform="translate(345.5625,211.9375)"/>
<path d="M0 0 C1.65 0 3.3 0 5 0 C14 19.40163934 14 19.40163934 14 23 C12.02 23 10.04 23 8 23 C7.67 21.35 7.34 19.7 7 18 C4.03 18 1.06 18 -2 18 C-2.33 19.65 -2.66 21.3 -3 23 C-4.65 23 -6.3 23 -8 23 C-7.38696372 17.59491957 -5.55619307 13.07560955 -3.4375 8.125 C-3.10814453 7.34125 -2.77878906 6.5575 -2.43945312 5.75 C-1.63203214 3.83091244 -0.81680231 1.9151135 0 0 Z M2 8 C1.67 9.65 1.34 11.3 1 13 C2.32 12.67 3.64 12.34 5 12 C4.01 10.68 3.02 9.36 2 8 Z " fill="#1D1D1B" transform="translate(155,212)"/>
<path d="M0 0 C3.125 1.3125 3.125 1.3125 5 3 C5 3.99 5 4.98 5 6 C4.34 6 3.68 6 3 6 C3 6.66 3 7.32 3 8 C2.29875 7.67 1.5975 7.34 0.875 7 C-2.36560143 5.87283428 -4.59573648 5.55596563 -8 6 C-10.11670357 7.46041766 -10.11670357 7.46041766 -11 10 C-10.77131906 13.68815293 -10.77131906 13.68815293 -10 17 C-8.58376784 17.05447047 -7.16691809 17.09300508 -5.75 17.125 C-4.56664062 17.15980469 -4.56664062 17.15980469 -3.359375 17.1953125 C-0.79268059 16.9828378 0.7916067 16.28654105 3 15 C3.66 16.65 4.32 18.3 5 20 C1.0827038 23.03274545 -2.05544799 23.47245722 -6.8515625 23.28125 C-9.93603555 22.87746444 -11.6661568 22.05927341 -14 20 C-16.89437482 15.8513961 -17.42230166 12.74934963 -16.5859375 7.8984375 C-15.68944087 4.99378842 -14.12510134 3.12510134 -12 1 C-8.31536722 -0.84231639 -4.03062994 -0.36066861 0 0 Z " fill="#1D1D1B" transform="translate(374,212)"/>
<path d="M0 0 C1.2065625 0.0309375 1.2065625 0.0309375 2.4375 0.0625 C3.7792678 3.32993656 5.10944359 6.60196908 6.4375 9.875 C6.8190625 10.80376953 7.200625 11.73253906 7.59375 12.68945312 C7.9546875 13.58212891 8.315625 14.47480469 8.6875 15.39453125 C9.02265625 16.21671143 9.3578125 17.0388916 9.703125 17.88598633 C10.4375 20.0625 10.4375 20.0625 10.4375 23.0625 C8.7875 23.0625 7.1375 23.0625 5.4375 23.0625 C5.2725 22.423125 5.1075 21.78375 4.9375 21.125 C3.655714 18.90130759 3.655714 18.90130759 1.5234375 18.57421875 C-0.49825155 18.3349022 -2.53091939 18.19356972 -4.5625 18.0625 C-4.8925 19.3825 -5.2225 20.7025 -5.5625 22.0625 C-7.2125 22.3925 -8.8625 22.7225 -10.5625 23.0625 C-10.00141443 17.66205136 -8.65502222 13.18191624 -6.5625 8.1875 C-6.28921875 7.51203125 -6.0159375 6.8365625 -5.734375 6.140625 C-3.25142383 0.07930302 -3.25142383 0.07930302 0 0 Z M-0.5625 8.0625 C-1.2225 9.7125 -1.8825 11.3625 -2.5625 13.0625 C-1.2425 13.0625 0.0775 13.0625 1.4375 13.0625 C1.1075 11.4125 0.7775 9.7625 0.4375 8.0625 C0.1075 8.0625 -0.2225 8.0625 -0.5625 8.0625 Z " fill="#1D1D1B" transform="translate(306.5625,211.9375)"/>
<path d="M0 0 C1.65 0 3.3 0 5 0 C14 19.40163934 14 19.40163934 14 23 C12.35 23 10.7 23 9 23 C8.34 21.35 7.68 19.7 7 18 C2.94914321 18.24631557 2.94914321 18.24631557 -1 19 C-2.5899433 20.92064793 -2.5899433 20.92064793 -3 23 C-4.65 23 -6.3 23 -8 23 C-7.26905294 17.94514073 -5.31619096 13.40096821 -3.4375 8.6875 C-3.10814453 7.85154297 -2.77878906 7.01558594 -2.43945312 6.15429688 C-1.63001123 4.10136454 -0.81676543 2.05002714 0 0 Z M2 8 C1.67 9.65 1.34 11.3 1 13 C2.32 12.67 3.64 12.34 5 12 C4.01 10.68 3.02 9.36 2 8 Z " fill="#1D1D1B" transform="translate(264,212)"/>
<path d="M0 0 C3.18695888 1.325961 3.35829013 1.94736489 4.6953125 5.0078125 C5.3136571 6.63944438 5.91055619 8.27932859 6.48828125 9.92578125 C6.79958984 10.74626953 7.11089844 11.56675781 7.43164062 12.41210938 C8.86168547 16.28737375 9.67578125 18.90839772 9.67578125 23.11328125 C8.02578125 22.78328125 6.37578125 22.45328125 4.67578125 22.11328125 C4.34578125 20.79328125 4.01578125 19.47328125 3.67578125 18.11328125 C-0.37507554 18.35959682 -0.37507554 18.35959682 -4.32421875 19.11328125 C-5.91416205 21.03392918 -5.91416205 21.03392918 -6.32421875 23.11328125 C-7.97421875 23.11328125 -9.62421875 23.11328125 -11.32421875 23.11328125 C-5.10221425 0.24867935 -5.10221425 0.24867935 0 0 Z M-1.32421875 8.11328125 C-1.65421875 9.76328125 -1.98421875 11.41328125 -2.32421875 13.11328125 C-1.00421875 12.78328125 0.31578125 12.45328125 1.67578125 12.11328125 C0.68578125 10.79328125 -0.30421875 9.47328125 -1.32421875 8.11328125 Z " fill="#1D1D1B" transform="translate(391.32421875,211.88671875)"/>
<path d="M0 0 C4.29 0 8.58 0 13 0 C13 1.65 13 3.3 13 5 C10.69 5 8.38 5 6 5 C6 5.99 6 6.98 6 8 C8.31 8 10.62 8 13 8 C13 9.65 13 11.3 13 13 C10.69 13 8.38 13 6 13 C6 14.65 6 16.3 6 18 C8.31 18 10.62 18 13 18 C13 19.65 13 21.3 13 23 C8.71 23 4.42 23 0 23 C0 15.41 0 7.82 0 0 Z " fill="#1D1D1B" transform="translate(70,212)"/>
<path d="M0 0 C1.32093161 3.96279482 0.31513114 5.52368146 -1.1875 9.375 C-1.61417969 10.49648437 -2.04085937 11.61796875 -2.48046875 12.7734375 C-4.27326125 16.58024112 -6.1379506 20.0689753 -10 22 C-11.66345582 22.12082534 -13.33220591 22.1753794 -15 22.1875 C-16.3303125 22.20876953 -16.3303125 22.20876953 -17.6875 22.23046875 C-20 22 -20 22 -22 20 C-22.43731497 13.23619521 -19.71084511 7.03951072 -17 1 C-15.35 1 -13.7 1 -12 1 C-12.45451184 2.73017508 -12.91378857 4.45909877 -13.375 6.1875 C-13.63023438 7.15042969 -13.88546875 8.11335937 -14.1484375 9.10546875 C-14.94766296 11.82210207 -15.9031362 14.39137175 -17 17 C-13.54863159 16.61135346 -13.54863159 16.61135346 -10 15 C-8.48587329 12.4898888 -7.80623411 9.80361409 -7 7 C-5.5625 3.5625 -5.5625 3.5625 -4 1 C-1.8125 0.125 -1.8125 0.125 0 0 Z " fill="#EDAE31" transform="translate(74,245)"/>
<path d="M0 0 C1.65 0 3.3 0 5 0 C5 5.94 5 11.88 5 18 C6.32 17.67 7.64 17.34 9 17 C9.33 11.39 9.66 5.78 10 0 C11.65 0 13.3 0 15 0 C15.11644156 3.08301416 15.18732432 6.16546123 15.25 9.25 C15.30027344 10.55904297 15.30027344 10.55904297 15.3515625 11.89453125 C15.45016705 18.35312952 15.45016705 18.35312952 13.203125 21.58203125 C9.99269429 23.6483191 7.73597862 23.46699733 4 23 C1.80566406 21.7644043 1.80566406 21.7644043 0 20 C-0.45410156 17.82348633 -0.45410156 17.82348633 -0.390625 15.33203125 C-0.37773438 14.43935547 -0.36484375 13.54667969 -0.3515625 12.62695312 C-0.31804688 11.69818359 -0.28453125 10.76941406 -0.25 9.8125 C-0.23195313 8.87212891 -0.21390625 7.93175781 -0.1953125 6.96289062 C-0.1481655 4.64090111 -0.08238231 2.3209631 0 0 Z " fill="#1D1D1B" transform="translate(0,212)"/>
<path d="M0 0 C1.07765625 0.01804688 2.1553125 0.03609375 3.265625 0.0546875 C4.49539063 0.08949219 4.49539063 0.08949219 5.75 0.125 C5.42 1.445 5.09 2.765 4.75 4.125 C3.82767578 4.19847656 3.82767578 4.19847656 2.88671875 4.2734375 C2.07847656 4.34820312 1.27023437 4.42296875 0.4375 4.5 C-0.36300781 4.56960937 -1.16351563 4.63921875 -1.98828125 4.7109375 C-4.52224441 5.02064426 -4.52224441 5.02064426 -7.25 7.125 C-3.95 7.455 -0.65 7.785 2.75 8.125 C2.42 9.445 2.09 10.765 1.75 12.125 C-2.21 12.125 -6.17 12.125 -10.25 12.125 C-9.92 13.115 -9.59 14.105 -9.25 15.125 C-6.28 15.455 -3.31 15.785 -0.25 16.125 C-0.58 17.775 -0.91 19.425 -1.25 21.125 C-11.24631336 21.90057604 -11.24631336 21.90057604 -15 19 C-16.60172571 15.31603087 -16.52170927 13.94012782 -15.25 10.125 C-11.46329796 2.62172004 -8.69850031 -0.18909783 0 0 Z " fill="#EDAE31" transform="translate(272.25,245.875)"/>
<path d="M0 0 C2.64 0 5.28 0 8 0 C8.33 0.99 8.66 1.98 9 3 C7.35 2.67 5.7 2.34 4 2 C3.7834375 3.11375 3.7834375 3.11375 3.5625 4.25 C2.30769231 10.38461538 2.30769231 10.38461538 1 13 C-0.64363134 13.72159424 -2.31050386 14.39351421 -4 15 C-3.34 15 -2.68 15 -2 15 C-2.99 17.475 -2.99 17.475 -4 20 C-2.86298403 21.36532549 -2.86298403 21.36532549 0.16015625 21.09765625 C1.44792969 21.08605469 2.73570312 21.07445313 4.0625 21.0625 C5.35285156 21.05347656 6.64320313 21.04445313 7.97265625 21.03515625 C8.97167969 21.02355469 9.97070312 21.01195313 11 21 C11.33 20.34 11.66 19.68 12 19 C12.66 19.66 13.32 20.32 14 21 C16.68839385 21.26991906 19.29141936 21.08737357 22 21 C22.33 19.35 22.66 17.7 23 16 C22.34 15.67 21.68 15.34 21 15 C21.33 16.65 21.66 18.3 22 20 C19.36 20 16.72 20 14 20 C13.07921439 17.4218003 12.83652091 16.38145121 13.9375 13.8125 C14.4634375 12.9153125 14.4634375 12.9153125 15 12 C15 11.67 15 11.34 15 11 C18.3 11 21.6 11 25 11 C26.32 14.96 27.64 18.92 29 23 C16.79 23 4.58 23 -8 23 C-7.21323103 18.27938619 -6.41377572 15.19488482 -4.5625 10.9375 C-4.13066406 9.93589844 -3.69882813 8.93429688 -3.25390625 7.90234375 C-2.84011719 6.94457031 -2.42632812 5.98679687 -2 5 C-1.32748131 3.33568608 -0.65873529 1.66981737 0 0 Z " fill="#F2BC1A" transform="translate(191,73)"/>
<path d="M0 0 C4.29 0 8.58 0 13 0 C13 1.65 13 3.3 13 5 C10.36 5 7.72 5 5 5 C5 5.99 5 6.98 5 8 C7.64 8 10.28 8 13 8 C13 9.65 13 11.3 13 13 C10.36 13 7.72 13 5 13 C5 14.65 5 16.3 5 18 C7.64 18 10.28 18 13 18 C13 19.65 13 21.3 13 23 C8.71 23 4.42 23 0 23 C0 15.41 0 7.82 0 0 Z " fill="#1D1D1B" transform="translate(221,212)"/>
<path d="M0 0 C0.33 0 0.66 0 1 0 C1.15566973 7.51200808 1.30379601 15.02413528 1.4429636 22.5364666 C1.50784619 26.02683386 1.57507945 29.51711891 1.64819336 33.00732422 C2.20460049 59.72676677 2.20460049 59.72676677 1.65234375 70.6328125 C1.61984024 71.32994354 1.58733673 72.02707458 1.55384827 72.74533081 C1.21228169 78.02547337 -0.08256384 81.62384576 -3 86 C-3.66 86 -4.32 86 -5 86 C-5 85.01 -5 84.02 -5 83 C-6.98 83.99 -8.96 84.98 -11 86 C-10.57405412 84.55903414 -10.13373367 83.12231288 -9.6875 81.6875 C-9.44386719 80.88699219 -9.20023438 80.08648437 -8.94921875 79.26171875 C-7.95817977 76.90035427 -6.91925057 75.66120007 -5 74 C-3.68 74.66 -2.36 75.32 -1 76 C-0.67 70.06 -0.34 64.12 0 58 C-21.78 58 -43.56 58 -66 58 C-66 57.67 -66 57.34 -66 57 C-44.22 57 -22.44 57 0 57 C0 38.19 0 19.38 0 0 Z " fill="#312C40" transform="translate(234,57)"/>
<path d="M0 0 C1.65 0 3.3 0 5 0 C5.64690922 1.6037331 6.29248764 3.20800306 6.9375 4.8125 C7.29714844 5.70582031 7.65679687 6.59914062 8.02734375 7.51953125 C8.73613486 9.3270909 9.3860247 11.15807409 10 13 C11.65 8.71 13.3 4.42 15 0 C16.65 0 18.3 0 20 0 C19.33427983 5.0325275 17.96202168 9.5612075 16.25 14.3125 C15.89035156 15.40401367 15.89035156 15.40401367 15.5234375 16.51757812 C14.765625 18.61328125 14.765625 18.61328125 13 22 C10.296875 22.98046875 10.296875 22.98046875 8 23 C0 5.76595745 0 5.76595745 0 0 Z " fill="#1D1D1B" transform="translate(48,212)"/>
<path d="M0 0 C7.26 0 14.52 0 22 0 C23.093125 2.578125 24.18625 5.15625 25.3125 7.8125 C25.65063721 8.59987549 25.98877441 9.38725098 26.3371582 10.19848633 C28.81778029 16.13970261 30.26620065 21.64273571 32 28 C18.14 28 4.28 28 -10 28 C-9.11849145 23.59245726 -7.82987241 19.79998491 -6.125 15.6875 C-3.99319919 10.48654878 -1.97500919 5.26669117 0 0 Z M2 2 C0.79014294 4.6549641 -0.41867415 7.31040924 -1.62109375 9.96875 C-2.47648652 11.84916016 -3.34181388 13.72512594 -4.22265625 15.59375 C-4.76212891 16.75390625 -4.76212891 16.75390625 -5.3125 17.9375 C-5.63863281 18.62714844 -5.96476563 19.31679687 -6.30078125 20.02734375 C-7.22272599 22.2795424 -7.22272599 22.2795424 -7 26 C5.21 26 17.42 26 30 26 C28.88625 22.7825 27.7725 19.565 26.625 16.25 C26.27775879 15.24227539 25.93051758 14.23455078 25.57275391 13.19628906 C25.29351074 12.39416992 25.01426758 11.59205078 24.7265625 10.765625 C24.44377441 9.94868164 24.16098633 9.13173828 23.86962891 8.29003906 C22.91797441 5.66835887 22.91797441 5.66835887 21 2 C14.73 2 8.46 2 2 2 Z " fill="#382D38" transform="translate(190,70)"/>
<path d="M0 0 C1 2 1 2 0.47094727 4.06298828 C0.17244873 4.89040527 -0.1260498 5.71782227 -0.43359375 6.5703125 C-0.9121582 7.91416016 -0.9121582 7.91416016 -1.40039062 9.28515625 C-1.91375977 10.69087891 -1.91375977 10.69087891 -2.4375 12.125 C-2.94506836 13.54232422 -2.94506836 13.54232422 -3.46289062 14.98828125 C-4.3018906 17.32802766 -5.14784292 19.66502009 -6 22 C-7.76949095 22.10815225 -9.54087487 22.18566083 -11.3125 22.25 C-12.29863281 22.29640625 -13.28476563 22.3428125 -14.30078125 22.390625 C-17 22 -17 22 -18.85546875 20.16796875 C-20 18 -20 18 -20 15.0625 C-18.71238768 11.11918726 -17.2935717 9.52273577 -14 7 C-11.9609375 6.38671875 -11.9609375 6.38671875 -9.8125 5.9375 C-5.94882261 5.46361331 -5.94882261 5.46361331 -4.75 2.9375 C-4.37875 1.9784375 -4.37875 1.9784375 -4 1 C-1.875 0.25 -1.875 0.25 0 0 Z M-12.75 11.25 C-14.38749213 13.18405876 -14.38749213 13.18405876 -14 17 C-12.35 16.67 -10.7 16.34 -9 16 C-8.34 14.02 -7.68 12.04 -7 10 C-10.81594124 9.61250787 -10.81594124 9.61250787 -12.75 11.25 Z " fill="#EDAE31" transform="translate(232,245)"/>
<path d="M0 0 C1.65 0 3.3 0 5 0 C3.62820313 7.48252838 1.07836721 14.05604954 -2 21 C-3.60332791 21.08121924 -5.20784026 21.13929134 -6.8125 21.1875 C-8.15248047 21.23970703 -8.15248047 21.23970703 -9.51953125 21.29296875 C-12 21 -12 21 -13.828125 19.69921875 C-15 18 -15 18 -14.9375 14.625 C-13.88860897 10.569288 -13.19584709 8.71647003 -10 6 C-7.00104774 5.30196801 -4.07341632 5.07223842 -1 5 C-0.67 3.35 -0.34 1.7 0 0 Z M-9 11 C-9.72965366 13.56282742 -9.72965366 13.56282742 -10 16 C-8.35 16 -6.7 16 -5 16 C-4.34 13.69 -3.68 11.38 -3 9 C-6.18490007 8.7226499 -6.18490007 8.7226499 -9 11 Z " fill="#EDAE31" transform="translate(204,246)"/>
<path d="M0 0 C10 0 10 0 12.625 1.625 C14.43667679 4.75425992 14.66713166 6.44196446 14 10 C11.75 12.375 11.75 12.375 9 14 C7.68 14 6.36 14 5 14 C5 16.97 5 19.94 5 23 C3.35 23 1.7 23 0 23 C0 15.41 0 7.82 0 0 Z M5 5 C5 5.99 5 6.98 5 8 C6.32 8 7.64 8 9 8 C8.67 7.01 8.34 6.02 8 5 C7.01 5 6.02 5 5 5 Z " fill="#1D1D1B" transform="translate(319,212)"/>
<path d="M0 0 C0.99 0.66 1.98 1.32 3 2 C3 2.99 3 3.98 3 5 C1.25 6.125 1.25 6.125 -1 7 C-3.25 6.125 -3.25 6.125 -5 5 C-4.236875 5.763125 -3.47375 6.52625 -2.6875 7.3125 C-1.800625 8.199375 -0.91375 9.08625 0 10 C0.598125 10.45375 1.19625 10.9075 1.8125 11.375 C3.84147898 14.15149756 3.353334 16.702216 3 20 C1.9375 21.9375 1.9375 21.9375 0 23 C-3.73209414 23.40713754 -6.10268041 23.48317209 -9.4375 21.6875 C-11 20 -11 20 -11 17 C-8.21176345 15.9673198 -7.1322726 15.95490707 -4.25 16.9375 C-3.13625 17.4634375 -3.13625 17.4634375 -2 18 C-2 17.01 -2 16.02 -2 15 C-2.86625 14.62875 -2.86625 14.62875 -3.75 14.25 C-6.46223549 12.7432025 -8.11751924 11.48756387 -10 9 C-10.4375 5.375 -10.4375 5.375 -10 2 C-6.31282562 -0.45811625 -4.35654296 -0.31118164 0 0 Z " fill="#1D1D1B" transform="translate(113,212)"/>
<path d="M0 0 C1.79133978 -0.05391993 3.58313899 -0.09275571 5.375 -0.125 C6.37273437 -0.14820313 7.37046875 -0.17140625 8.3984375 -0.1953125 C11 0 11 0 13 2 C12.61765316 6.87492223 11.4234304 11.35012736 10 16 C7.87527424 16.05386629 5.75016348 16.09273071 3.625 16.125 C2.44164062 16.14820313 1.25828125 16.17140625 0.0390625 16.1953125 C-3 16 -3 16 -5 14 C-4.79023828 11.27309766 -4.41185242 9.5397569 -2.7421875 7.3515625 C-0.47011673 5.58892464 0.84865172 5.68907181 3.6875 5.8125 C4.49574219 5.83957031 5.30398437 5.86664063 6.13671875 5.89453125 C6.75160156 5.92933594 7.36648437 5.96414063 8 6 C8 5.34 8 4.68 8 4 C5.03 4 2.06 4 -1 4 C-0.67 2.68 -0.34 1.36 0 0 Z M0 10 C0 10.33 0 10.66 0 11 C1.98 11 3.96 11 6 11 C6 10.67 6 10.34 6 10 C4.02 10 2.04 10 0 10 Z " fill="#EDAE31" transform="translate(177,251)"/>
<path d="M0 0 C1.60379341 -0.05416188 3.20811406 -0.09286638 4.8125 -0.125 C5.70582031 -0.14820313 6.59914063 -0.17140625 7.51953125 -0.1953125 C10 0 10 0 13 2 C12.00956295 6.83628305 11.04301154 11.47618873 9 16 C7.35 16 5.7 16 4 16 C4.74250597 11.91621717 5.82923301 7.98060777 7 4 C5.68 4 4.36 4 3 4 C2.86722656 4.61488281 2.73445313 5.22976563 2.59765625 5.86328125 C2.42105469 6.67152344 2.24445313 7.47976563 2.0625 8.3125 C1.80146484 9.51326172 1.80146484 9.51326172 1.53515625 10.73828125 C1 13 1 13 0 16 C-1.65 16 -3.3 16 -5 16 C-3.90301833 10.30860098 -2.45946923 5.25432063 0 0 Z " fill="#EDAE31" transform="translate(75,251)"/>
<path d="M0 0 C0.77279297 -0.01224609 1.54558594 -0.02449219 2.34179688 -0.03710938 C7.30077773 -0.04968498 11.3599784 0.60329499 16.0625 2.1875 C16.0625 3.5075 16.0625 4.8275 16.0625 6.1875 C5.5025 6.1875 -5.0575 6.1875 -15.9375 6.1875 C-15.6075 4.5375 -15.2775 2.8875 -14.9375 1.1875 C-9.91606755 0.18321351 -5.09712779 0.00422998 0 0 Z " fill="#B2A68F" transform="translate(200.9375,103.8125)"/>
<path d="M0 0 C0 3.99904969 -1.72586967 5.80200422 -4 9 C-2.35 8.34 -0.7 7.68 1 7 C1 7.99 1 8.98 1 10 C1.66 10.33 2.32 10.66 3 11 C3 11.99 3 12.98 3 14 C0.69 14 -1.62 14 -4 14 C-3.67 15.65 -3.34 17.3 -3 19 C-7.29456388 21.30440013 -11.31479085 22.78184562 -16 24 C-12.04 24.33 -8.08 24.66 -4 25 C-4 25.33 -4 25.66 -4 26 C-8.29 26 -12.58 26 -17 26 C-17.33 25.01 -17.66 24.02 -18 23 C-18.66 23 -19.32 23 -20 23 C-19.67 21.35 -19.34 19.7 -19 18 C-14.71 17.34 -10.42 16.68 -6 16 C-6 14.68 -6 13.36 -6 12 C-6.99 11.67 -7.98 11.34 -9 11 C-6.05197367 7.28767055 -3.04284775 3.63451258 0 0 Z " fill="#2A2843" transform="translate(211,136)"/>
<path d="M0 0 C0.33 0 0.66 0 1 0 C1 2.97 1 5.94 1 9 C3.64 8.67 6.28 8.34 9 8 C9 6.02 9 4.04 9 2 C10.65 2.33 12.3 2.66 14 3 C14 3.99 14 4.98 14 6 C12.68 6 11.36 6 10 6 C10 6.66 10 7.32 10 8 C10.7425 7.896875 11.485 7.79375 12.25 7.6875 C15 8 15 8 17.1875 10.25 C22.96444069 19.01501346 22.12797303 27.74793848 22 38 C21.34 37.67 20.68 37.34 20 37 C20.33 36.01 20.66 35.02 21 34 C14.4 34 7.8 34 1 34 C1 35.65 1 37.3 1 39 C0.67 39 0.34 39 0 39 C0 29.76 0 20.52 0 11 C0.33 11 0.66 11 1 11 C1 17.93 1 24.86 1 32 C7.6 32 14.2 32 21 32 C20.67 30.411875 20.34 28.82375 20 27.1875 C19.40863269 24.34154481 19 21.9154476 19 19 C18.34 18.67 17.68 18.34 17 18 C16.28293018 16.01751285 15.61709587 14.01584651 15 12 C14.67 11.34 14.34 10.68 14 10 C9.38 10 4.76 10 0 10 C0 6.7 0 3.4 0 0 Z " fill="#59493A" transform="translate(167,117)"/>
<path d="M0 0 C3.69230769 0.69230769 3.69230769 0.69230769 5 2 C4.9175 2.928125 4.835 3.85625 4.75 4.8125 C4.8325 5.864375 4.915 6.91625 5 8 C6.2375 8.99 6.2375 8.99 7.5 10 C10 12 10 12 10.5 15 C9.96250906 18.22494561 9.2969155 19.7030845 7 22 C6.34 22 5.68 22 5 22 C5 21.34 5 20.68 5 20 C3.35 20 1.7 20 0 20 C-1.48195419 17.03609162 -1.05746597 14.27556022 -1 11 C-1 8.7915684 -1.02442925 6.58310343 -1.0625 4.375 C-1 1 -1 1 0 0 Z " fill="#2D2631" transform="translate(192,127)"/>
<path d="M0 0 C4.29 0 8.58 0 13 0 C13 1.65 13 3.3 13 5 C11.68 5 10.36 5 9 5 C9 10.94 9 16.88 9 23 C7.35 23 5.7 23 4 23 C4 17.06 4 11.12 4 5 C2.68 5 1.36 5 0 5 C0 3.35 0 1.7 0 0 Z " fill="#1D1D1B" transform="translate(243,212)"/>
<path d="M0 0 C0.66 0.33 1.32 0.66 2 1 C-2.67781878 4.22249738 -5.86030356 6.12914985 -11.56323242 6.11352539 C-12.48396042 6.11344986 -13.40468842 6.11337433 -14.35331726 6.11329651 C-15.34402725 6.10813522 -16.33473724 6.10297394 -17.35546875 6.09765625 C-18.37224197 6.0962413 -19.3890152 6.09482635 -20.43659973 6.09336853 C-23.68692964 6.08776707 -26.93719088 6.07521432 -30.1875 6.0625 C-32.38997296 6.05748519 -34.59244701 6.05292225 -36.79492188 6.04882812 C-42.19663804 6.03779717 -47.59831412 6.02105762 -53 6 C-53 5.34 -53 4.68 -53 4 C-50.16825748 3.05608583 -48.53065256 2.89172893 -45.60791016 2.93408203 C-44.72334137 2.94384064 -43.83877258 2.95359924 -42.92739868 2.96365356 C-41.97424774 2.97822601 -41.0210968 2.99279846 -40.0390625 3.0078125 C-38.02083838 3.02533062 -36.00260888 3.04223873 -33.984375 3.05859375 C-30.8022582 3.08955011 -27.62040892 3.12506683 -24.43847656 3.17138672 C-21.36780463 3.21375723 -18.29744711 3.23717682 -15.2265625 3.2578125 C-13.80290878 3.28574387 -13.80290878 3.28574387 -12.35049438 3.3142395 C-7.26287696 3.33396631 -4.2636187 3.051732 0 0 Z " fill="#1B1635" transform="translate(230,165)"/>
<path d="M0 0 C1.65 0 3.3 0 5 0 C5.33 2.64 5.66 5.28 6 8 C6.37511719 7.4225 6.75023438 6.845 7.13671875 6.25 C7.90435547 5.13625 7.90435547 5.13625 8.6875 4 C9.18636719 3.2575 9.68523437 2.515 10.19921875 1.75 C12 0 12 0 14.70703125 -0.25 C15.46371094 -0.1675 16.22039062 -0.085 17 0 C17 0.66 17 1.32 17 2 C16.34 2 15.68 2 15 2 C14.73832031 2.55171875 14.47664063 3.1034375 14.20703125 3.671875 C12.83942292 6.30972148 11.32329713 8.76910147 9.6875 11.25 C9.11386719 12.14203125 8.54023437 13.0340625 7.94921875 13.953125 C6 16 6 16 3.33203125 16.359375 C1 16 1 16 0 15 C-0.07313567 12.46950598 -0.09247527 9.96695163 -0.0625 7.4375 C-0.05798828 6.72658203 -0.05347656 6.01566406 -0.04882812 5.28320312 C-0.03700864 3.52209987 -0.01907263 1.76103964 0 0 Z " fill="#EDAE31" transform="translate(96,251)"/>
<path d="M0 0 C14.52 0 29.04 0 44 0 C44 0.99 44 1.98 44 3 C29.23890664 3.84278122 14.75143531 4.06066736 0 3 C0 2.01 0 1.02 0 0 Z " fill="#9D7828" transform="translate(179,99)"/>
<path d="M0 0 C0.33 0 0.66 0 1 0 C1 20.79 1 41.58 1 63 C1.66 63 2.32 63 3 63 C3 66.3 3 69.6 3 73 C3.99 73.33 4.98 73.66 6 74 C4.35 74 2.7 74 1 74 C1 83.57 1 93.14 1 103 C0.67 103 0.34 103 0 103 C0 69.01 0 35.02 0 0 Z " fill="#160924" transform="translate(164,54)"/>
<path d="M0 0 C1.65 0 3.3 0 5 0 C5 7.59 5 15.18 5 23 C3.35 23 1.7 23 0 23 C0 15.41 0 7.82 0 0 Z " fill="#1D1D1B" transform="translate(119,212)"/>
<path d="M0 0 C1.65 0 3.3 0 5 0 C5 7.59 5 15.18 5 23 C3.35 23 1.7 23 0 23 C0 15.41 0 7.82 0 0 Z " fill="#1D1D1B" transform="translate(41,212)"/>
<path d="M0 0 C1.17042847 0.03927612 1.17042847 0.03927612 2.36450195 0.0793457 C3.21206055 0.09545898 4.05961914 0.11157227 4.93286133 0.12817383 C6.25447266 0.19101563 6.25447266 0.19101563 7.6027832 0.25512695 C8.49545898 0.27768555 9.38813477 0.30024414 10.30786133 0.32348633 C12.51202592 0.38242121 14.71280992 0.46461878 16.9152832 0.56762695 C16.9152832 2.21762695 16.9152832 3.86762695 16.9152832 5.56762695 C9.6552832 5.56762695 2.3952832 5.56762695 -5.0847168 5.56762695 C-2.0847168 0.56762695 -2.0847168 0.56762695 0 0 Z " fill="#4790CE" transform="translate(217.084716796875,149.432373046875)"/>
<path d="M0 0 C3.3 0 6.6 0 10 0 C10.99 3.3 11.98 6.6 13 10 C11.68 10.33 10.36 10.66 9 11 C8.34 8.69 7.68 6.38 7 4 C7 4.33 7 4.66 7 5 C7 6.32 7 7.64 7 9 C4.36 9 1.72 9 -1 9 C-1.92078561 6.4218003 -2.16347909 5.38145121 -1.0625 2.8125 C-0.5365625 1.9153125 -0.5365625 1.9153125 0 1 C0 0.67 0 0.34 0 0 Z " fill="#DBA81E" transform="translate(206,84)"/>
<path d="M0 0 C1.32 0 2.64 0 4 0 C3.27275406 5.52706913 1.66554027 10.69960141 0 16 C-1.98 16 -3.96 16 -6 16 C-4.43551329 10.3856009 -2.83604813 5.13189662 0 0 Z " fill="#EDAE31" transform="translate(91,251)"/>
<path d="M0 0 C1.98 0 3.96 0 6 0 C4.125 3.875 4.125 3.875 3 5 C2.76924918 6.34747084 2.58846937 7.70377565 2.4375 9.0625 C2.293125 10.361875 2.14875 11.66125 2 13 C1.34 12.67 0.68 12.34 0 12 C-3.11361767 11.72488371 -6.22687938 11.55331352 -9.34765625 11.37890625 C-10.22292969 11.25386719 -11.09820312 11.12882813 -12 11 C-12.33 10.34 -12.66 9.68 -13 9 C-11.41701974 8.5196682 -9.83360022 8.04078388 -8.25 7.5625 C-6.92742187 7.16224609 -6.92742187 7.16224609 -5.578125 6.75390625 C-3.39434165 6.11531506 -1.21164502 5.53224167 1 5 C0.67 3.35 0.34 1.7 0 0 Z " fill="#536383" transform="translate(207,150)"/>
<path d="M0 0 C0.33 0 0.66 0 1 0 C1 1.98 1 3.96 1 6 C1.8971875 5.505 1.8971875 5.505 2.8125 5 C5 4 5 4 8 4 C8 4.66 8 5.32 8 6 C8.66 5.67 9.32 5.34 10 5 C11.99960012 4.960008 14.00047242 4.95653201 16 5 C16 6.32 16 7.64 16 9 C13.71168328 9.55564871 11.41919635 10.09414974 9.125 10.625 C7.84882813 10.92664063 6.57265625 11.22828125 5.2578125 11.5390625 C4.18273437 11.69117188 3.10765625 11.84328125 2 12 C0 10 0 10 -0.1953125 7.6171875 C-0.17210937 6.71226562 -0.14890625 5.80734375 -0.125 4.875 C-0.10695312 3.96492187 -0.08890625 3.05484375 -0.0703125 2.1171875 C-0.04710937 1.41851562 -0.02390625 0.71984375 0 0 Z " fill="#3C4569" transform="translate(189,143)"/>
<path d="M0 0 C8.91 0 17.82 0 27 0 C26.67 0.99 26.34 1.98 26 3 C17.42 3 8.84 3 0 3 C0 2.01 0 1.02 0 0 Z " fill="#388CDA" transform="translate(129,40)"/>
<path d="M0 0 C3.5 0.25 3.5 0.25 5.5 2.25 C5.125 5.375 5.125 5.375 4.5 8.25 C1.53 8.25 -1.44 8.25 -4.5 8.25 C-5.125 5.375 -5.125 5.375 -5.5 2.25 C-3.5 0.25 -3.5 0.25 0 0 Z " fill="#EEF0F7" transform="translate(200.5,59.75)"/>
<path d="M0 0 C0.33 0 0.66 0 1 0 C1 3.3 1 6.6 1 10 C9.25 10 17.5 10 26 10 C26 10.66 26 11.32 26 12 C17.09 12 8.18 12 -1 12 C-0.67 8.04 -0.34 4.08 0 0 Z " fill="#E1AE25" transform="translate(246,27)"/>
<path d="M0 0 C6.6 0 13.2 0 20 0 C19.67 1.32 19.34 2.64 19 4 C14.71 4 10.42 4 6 4 C6.33 3.01 6.66 2.02 7 1 C5.02 1 3.04 1 1 1 C0.67 2.32 0.34 3.64 0 5 C0 3.35 0 1.7 0 0 Z " fill="#F1B919" transform="translate(168,151)"/>
<path d="M0 0 C0.66 0 1.32 0 2 0 C4.04169485 2.90548882 5 4.40142046 5 8 C3.625 10.1875 3.625 10.1875 2 12 C1.34 12 0.68 12 0 12 C0 11.01 0 10.02 0 9 C-1.32 9.99 -2.64 10.98 -4 12 C-4.66 11.67 -5.32 11.34 -6 11 C-5.38125 10.113125 -4.7625 9.22625 -4.125 8.3125 C-2.34602259 5.53938816 -1.08916398 3.0859646 0 0 Z " fill="#EAEAED" transform="translate(212,134)"/>
<path d="M0 0 C2.47128202 0.9566253 3.72986449 1.45972898 4.9375 3.875 C5 6 5 6 3.6875 8.25 C3.130625 8.8275 2.57375 9.405 2 10 C1.34 10 0.68 10 0 10 C0 9.01 0 8.02 0 7 C-1.98 7.99 -3.96 8.98 -6 10 C-4.6302836 6.00499382 -2.74277578 3.19990508 0 0 Z " fill="#F6F6F7" transform="translate(229,133)"/>
<path d="M0 0 C6.93 0 13.86 0 21 0 C20.01 0.495 20.01 0.495 19 1 C19 1.66 19 2.32 19 3 C17.20841511 3.02696365 15.41671527 3.04637917 13.625 3.0625 C12.62726563 3.07410156 11.62953125 3.08570312 10.6015625 3.09765625 C8 3 8 3 6 2 C6 3.65 6 5.3 6 7 C5.01 7 4.02 7 3 7 C2.01 7.495 2.01 7.495 1 8 C2.20381448 5.50638429 3.45428722 3.31856917 5 1 C3.35 1 1.7 1 0 1 C0 0.67 0 0.34 0 0 Z " fill="#F8BE17" transform="translate(178,102)"/>
<path d="M0 0 C0.625 1.875 0.625 1.875 1 4 C-1 6 -1 6 -4.125 6.125 C-5.548125 6.063125 -5.548125 6.063125 -7 6 C-7.33 4.35 -7.66 2.7 -8 1 C-4.93251126 -0.86240388 -3.40254489 -1.2151946 0 0 Z " fill="#3A71A9" transform="translate(222,70)"/>
<path d="M0 0 C2.31 0 4.62 0 7 0 C6.01 0.66 5.02 1.32 4 2 C4.66 2.66 5.32 3.32 6 4 C5.01 4.66 4.02 5.32 3 6 C6.96 6.33 10.92 6.66 15 7 C15 7.33 15 7.66 15 8 C10.71 8 6.42 8 2 8 C1.67 7.01 1.34 6.02 1 5 C0.34 5 -0.32 5 -1 5 C-0.67 3.35 -0.34 1.7 0 0 Z " fill="#0F1132" transform="translate(192,154)"/>
<path d="M0 0 C0.8353125 0.556875 0.8353125 0.556875 1.6875 1.125 C1.6875 2.445 1.6875 3.765 1.6875 5.125 C-0.9525 5.125 -3.5925 5.125 -6.3125 5.125 C-6.6425 3.805 -6.9725 2.485 -7.3125 1.125 C-2.88173077 -1.09038462 -2.88173077 -1.09038462 0 0 Z " fill="#F3B81B" transform="translate(211.3125,87.875)"/>
<path d="M0 0 C4.70588235 0.70588235 4.70588235 0.70588235 6 2 C6.04080783 3.99958364 6.04254356 6.00045254 6 8 C5.01 8.495 5.01 8.495 4 9 C4.33 7.68 4.66 6.36 5 5 C2.36 5 -0.28 5 -3 5 C-1.125 1.125 -1.125 1.125 0 0 Z " fill="#1A1735" transform="translate(196,137)"/>
<path d="M0 0 C0.66 0.66 1.32 1.32 2 2 C2.66 1.34 3.32 0.68 4 0 C3.8125 1.875 3.8125 1.875 3 4 C2.175 4.309375 1.35 4.61875 0.5 4.9375 C-0.325 5.288125 -1.15 5.63875 -2 6 C-2.89386164 8.54775306 -2.89386164 8.54775306 -3 11 C-4.32 10.67 -5.64 10.34 -7 10 C-6.67 9.01 -6.34 8.02 -6 7 C-6 6.01 -6 5.02 -6 4 C-4.35 3.67 -2.7 3.34 -1 3 C-0.67 2.01 -0.34 1.02 0 0 Z " fill="#72582E" transform="translate(193,83)"/>
<path d="M0 0 C0.5775 0.680625 1.155 1.36125 1.75 2.0625 C0.75 3.0625 0.75 3.0625 -2.8125 3.125 C-3.946875 3.104375 -5.08125 3.08375 -6.25 3.0625 C-6.25 3.7225 -6.25 4.3825 -6.25 5.0625 C-7.9 5.0625 -9.55 5.0625 -11.25 5.0625 C-10.92 4.4025 -10.59 3.7425 -10.25 3.0625 C-9.59 3.0625 -8.93 3.0625 -8.25 3.0625 C-8.0025 2.423125 -7.755 1.78375 -7.5 1.125 C-6.25 -0.9375 -6.25 -0.9375 -4.375 -1.9375 C-2.25 -1.9375 -2.25 -1.9375 0 0 Z " fill="#222241" transform="translate(190.25,158.9375)"/>
<path d="M0 0 C0 0.99 0 1.98 0 3 C-3.96 3.66 -7.92 4.32 -12 5 C-12 4.01 -12 3.02 -12 2 C-7.8803623 0.70756464 -4.33168317 -0.26252625 0 0 Z " fill="#F2F2F4" transform="translate(205,149)"/>
<path d="M0 0 C0 3 0 3 -1.75 5.125 C-3.95974524 6.96645436 -5.20090866 7.60012981 -8 8 C-7.25 3.25 -7.25 3.25 -5 1 C-2.375 0.375 -2.375 0.375 0 0 Z " fill="#1D1D1B" transform="translate(396,204)"/>
<path d="M0 0 C2.0625 0.4375 2.0625 0.4375 4 1 C3.67 3.31 3.34 5.62 3 8 C1.68 8 0.36 8 -1 8 C-1.04241723 5.66705225 -1.04092937 3.33297433 -1 1 C-0.67 0.67 -0.34 0.34 0 0 Z " fill="#858493" transform="translate(192,127)"/>
<path d="M0 0 C0.33 1.32 0.66 2.64 1 4 C1.66 4 2.32 4 3 4 C3.12375 5.918125 3.12375 5.918125 3.25 7.875 C3.45869931 10.05333418 3.45869931 10.05333418 4 12 C5.92064793 13.5899433 5.92064793 13.5899433 8 14 C6.02 14 4.04 14 2 14 C0.66416101 9.15758367 -0.25328119 5.06562383 0 0 Z " fill="#D6D7DF" transform="translate(188,135)"/>
<path d="M0 0 C0.33 0 0.66 0 1 0 C1.33 1.65 1.66 3.3 2 5 C3.65 5.33 5.3 5.66 7 6 C7.33 6.99 7.66 7.98 8 9 C2.69520066 9 1.81017373 7.4637943 -2 4 C-1.34 2.68 -0.68 1.36 0 0 Z " fill="#E8B517" transform="translate(172,156)"/>
<path d="M0 0 C2.64 0 5.28 0 8 0 C8.33 0.99 8.66 1.98 9 3 C7.35 2.67 5.7 2.34 4 2 C3.34 3.65 2.68 5.3 2 7 C1.01 6.67 0.02 6.34 -1 6 C-0.67 4.02 -0.34 2.04 0 0 Z " fill="#F2BD1A" transform="translate(191,73)"/>
<path d="M0 0 C0 0.99 0 1.98 0 3 C-3.96 3 -7.92 3 -12 3 C-8.6463584 -0.3536416 -4.57608788 0 0 0 Z " fill="#EEEEF0" transform="translate(206,157)"/>
<path d="M0 0 C1.2065625 0.0309375 1.2065625 0.0309375 2.4375 0.0625 C1.04417426 3.42970387 -0.5414286 5.0484524 -3.5625 7.0625 C-3.60504356 5.06295254 -3.60330783 3.06208364 -3.5625 1.0625 C-2.5625 0.0625 -2.5625 0.0625 0 0 Z " fill="#435D7A" transform="translate(180.5625,102.9375)"/>
<path d="M0 0 C-0.33 1.32 -0.66 2.64 -1 4 C-2.98 4 -4.96 4 -7 4 C-7.33 3.01 -7.66 2.02 -8 1 C-5.10765685 0.17361624 -3.11257569 0 0 0 Z " fill="#EFBB19" transform="translate(201,142)"/>
<path d="M0 0 C5.37305699 -0.44041451 5.37305699 -0.44041451 8 0 C10 2.5 10 2.5 11 5 C10.01 5 9.02 5 8 5 C8 4.01 8 3.02 8 2 C5.03 2 2.06 2 -1 2 C-0.67 1.34 -0.34 0.68 0 0 Z " fill="#D5A41D" transform="translate(173,126)"/>
<path d="M0 0 C0.33 0.66 0.66 1.32 1 2 C2.32 2 3.64 2 5 2 C5 2.66 5 3.32 5 4 C-0.61 4 -6.22 4 -12 4 C-12 3.67 -12 3.34 -12 3 C-11.21753906 2.95101562 -10.43507812 2.90203125 -9.62890625 2.8515625 C-8.61699219 2.77679688 -7.60507813 2.70203125 -6.5625 2.625 C-5.55316406 2.55539063 -4.54382813 2.48578125 -3.50390625 2.4140625 C-2.26447266 2.20910156 -2.26447266 2.20910156 -1 2 C-0.67 1.34 -0.34 0.68 0 0 Z " fill="#FABB15" transform="translate(207,66)"/>
<path d="M0 0 C1.98 0 3.96 0 6 0 C5.34 1.65 4.68 3.3 4 5 C2.35 4.67 0.7 4.34 -1 4 C-0.67 2.68 -0.34 1.36 0 0 Z " fill="#EDAE31" transform="translate(92,246)"/>
<path d="M0 0 C0.99 0.33 1.98 0.66 3 1 C3.33 2.65 3.66 4.3 4 6 C2.68 6.33 1.36 6.66 0 7 C-1.04449911 3.86650268 -0.93423645 3.01031744 0 0 Z " fill="#EEB51B" transform="translate(215,88)"/>
<path d="M0 0 C0.99 0.33 1.98 0.66 3 1 C2.01 1.33 1.02 1.66 0 2 C0.83333333 4.16666667 0.83333333 4.16666667 3 5 C1.68 6.32 0.36 7.64 -1 9 C-1.625 5.625 -1.625 5.625 -2 2 C-1.34 1.34 -0.68 0.68 0 0 Z " fill="#675130" transform="translate(195,74)"/>
<path d="M0 0 C0 0.99 0 1.98 0 3 C-3.13498292 4.85776765 -5.37471432 5.20140476 -9 5 C-7.68 4.34 -6.36 3.68 -5 3 C-5.99 2.34 -6.98 1.68 -8 1 C-2.25 0 -2.25 0 0 0 Z " fill="#100C29" transform="translate(208,152)"/>
<path d="M0 0 C1.65 0 3.3 0 5 0 C4.67 1.32 4.34 2.64 4 4 C2.35 4 0.7 4 -1 4 C-0.67 2.68 -0.34 1.36 0 0 Z " fill="#EDAE31" transform="translate(156,246)"/>
<path d="M0 0 C0.99 0.99 1.98 1.98 3 3 C-0.3 3 -3.6 3 -7 3 C-7 2.34 -7 1.68 -7 1 C-3.6875 0.3125 -3.6875 0.3125 0 0 Z " fill="#161337" transform="translate(191,161)"/>
<path d="M0 0 C0.6875 1.8125 0.6875 1.8125 1 4 C0 5.8125 0 5.8125 -2 7 C-5.6875 6.6875 -5.6875 6.6875 -9 6 C-9 5.67 -9 5.34 -9 5 C-6.69 5 -4.38 5 -2 5 C-1.34 3.35 -0.68 1.7 0 0 Z " fill="#F0B914" transform="translate(181,89)"/>
<path d="M0 0 C1.98 0 3.96 0 6 0 C4.25 3.875 4.25 3.875 2 5 C2 4.01 2 3.02 2 2 C1.34 2 0.68 2 0 2 C0 1.34 0 0.68 0 0 Z " fill="#468CC8" transform="translate(207,150)"/>
</svg>
